%
M48
M72
T01C0.02200
T02C0.02362
T03C0.03200
T04C0.03937
T05C0.04000
T06C0.05000
T07C0.09600
T08C0.11800
%
T01
X283500Y53500
X298500Y166000
X541000Y116000
T02
X401000Y156000
X246000Y196000
X246000Y206000
X26000Y131000
T03
X138500Y136000
X148500Y136000
X158500Y136000
X168500Y136000
X178500Y136000
X188500Y136000
X198500Y136000
X208500Y136000
X241000Y146000
X241000Y166000
X286000Y161000
X286000Y151000
X286000Y141000
X286000Y131000
X286000Y121000
X286000Y111000
X286000Y101000
X286000Y91000
X346000Y91000
X346000Y101000
X346000Y111000
X346000Y121000
X346000Y131000
X346000Y141000
X346000Y151000
X346000Y161000
X346000Y171000
X346000Y181000
X346000Y191000
X346000Y201000
X346000Y211000
X346000Y221000
X286000Y221000
X286000Y211000
X286000Y201000
X286000Y191000
X286000Y181000
X286000Y171000
X208500Y106000
X198500Y106000
X188500Y106000
X178500Y106000
X168500Y106000
X158500Y106000
X148500Y106000
X138500Y106000
X126000Y53500
X116000Y53500
X101000Y53500
X71000Y53500
X71000Y31000
X101000Y31000
X131000Y31000
X161000Y31000
X191000Y31000
X221000Y31000
X251000Y31000
X281000Y31000
X311000Y31000
X341000Y31000
X371000Y31000
X401000Y31000
X431000Y53500
X461000Y53500
X476000Y53500
X486000Y53500
X491000Y31000
X521000Y31000
X521000Y11000
X491000Y11000
X551000Y11000
X551000Y31000
X551000Y51000
X551000Y71000
X528500Y81000
X528500Y91000
X528500Y101000
X528500Y111000
X528500Y121000
X528500Y131000
X528500Y141000
X528500Y151000
X551000Y151000
X551000Y131000
X551000Y111000
X551000Y91000
X498500Y91000
X498500Y81000
X498500Y101000
X498500Y111000
X498500Y121000
X498500Y131000
X498500Y141000
X498500Y151000
X451000Y151000
X451000Y141000
X451000Y131000
X451000Y121000
X451000Y111000
X451000Y101000
X451000Y91000
X451000Y81000
X421000Y81000
X421000Y91000
X421000Y101000
X421000Y111000
X421000Y121000
X421000Y131000
X421000Y141000
X421000Y151000
X366000Y53500
X356000Y53500
X341000Y53500
X311000Y53500
X246000Y53500
X236000Y53500
X221000Y53500
X191000Y53500
X41000Y31000
X11000Y31000
X591000Y51000
X611000Y51000
T04
X501000Y181000
X501000Y191000
X501000Y201000
X501000Y211000
X501000Y221000
X471000Y221000
X471000Y211000
X471000Y201000
X471000Y191000
X471000Y181000
X441000Y181000
X441000Y191000
X441000Y201000
X441000Y211000
X441000Y221000
X411000Y221000
X411000Y211000
X411000Y201000
X411000Y191000
X411000Y181000
X221000Y181000
X221000Y191000
X221000Y201000
X221000Y211000
X221000Y221000
X191000Y221000
X191000Y211000
X191000Y201000
X191000Y191000
X191000Y181000
X161000Y181000
X161000Y191000
X161000Y201000
X161000Y211000
X161000Y221000
X131000Y221000
X131000Y211000
X131000Y201000
X131000Y191000
X131000Y181000
T05
X18500Y16000
X33500Y16000
X78500Y16000
X93500Y16000
X138500Y16000
X153500Y16000
X198500Y16000
X213500Y16000
X258500Y16000
X273500Y16000
X318500Y16000
X333500Y16000
X378500Y16000
X393500Y16000
X438500Y16000
X453500Y16000
X591000Y31000
X601000Y31000
X611000Y31000
X608500Y88500
X598500Y88500
X588500Y88500
X371000Y91000
X371000Y101000
X371000Y111000
X371000Y121000
X371000Y131000
X371000Y141000
X371000Y151000
X371000Y161000
X371000Y171000
X371000Y181000
X371000Y191000
X371000Y201000
X371000Y211000
X371000Y221000
X261000Y221000
X261000Y211000
X261000Y201000
X261000Y191000
X261000Y181000
X261000Y171000
X261000Y161000
X261000Y151000
X261000Y141000
X261000Y131000
X261000Y121000
X261000Y111000
X261000Y101000
X261000Y91000
X106000Y96000
X96000Y96000
X86000Y96000
X76000Y96000
X66000Y96000
X56000Y96000
X46000Y96000
X36000Y96000
X26000Y96000
X16000Y96000
X16000Y106000
X26000Y106000
X36000Y106000
X46000Y106000
X56000Y106000
X66000Y106000
X76000Y106000
X86000Y106000
X96000Y106000
X106000Y106000
T06
X76000Y171000
X56000Y181000
X26000Y196000
X11000Y271000
X21000Y291000
X36000Y321000
X101000Y291000
X91000Y271000
X171000Y271000
X181000Y291000
X196000Y321000
X261000Y291000
X251000Y271000
X331000Y271000
X341000Y291000
X356000Y321000
X421000Y291000
X411000Y271000
X491000Y271000
X501000Y291000
X516000Y321000
X581000Y291000
X571000Y271000
X596000Y321000
X436000Y321000
X276000Y321000
X116000Y321000
X561000Y221000
X581000Y211000
X611000Y196000
T07
X601000Y181000
X551000Y196000
X601000Y211000
X596000Y261000
X516000Y261000
X436000Y261000
X356000Y261000
X276000Y261000
X196000Y261000
X116000Y261000
X36000Y261000
X36000Y211000
X86000Y196000
X36000Y181000
X21000Y311000
X51000Y311000
X101000Y311000
X131000Y311000
X181000Y311000
X211000Y311000
X261000Y311000
X291000Y311000
X341000Y311000
X371000Y311000
X421000Y311000
X451000Y311000
X501000Y311000
X531000Y311000
X581000Y311000
X611000Y311000
T08
X588874Y149504
X577063Y131000
X600685Y131000
M30
